<mxfile host="app.diagrams.net" modified="2020-12-02T03:26:41.064Z" agent="5.0 (Windows NT 10.0; Win64; x64) AppleWebKit/537.36 (KHTML, like Gecko) Chrome/87.0.4280.66 Safari/537.36" etag="gwpCxFm65aWbHjh3chIy" version="13.10.5" type="github">
  <diagram id="KAIJl5dzbeqe-A1BVZOt" name="Page-1">
    <mxGraphModel dx="1422" dy="762" grid="1" gridSize="10" guides="1" tooltips="1" connect="1" arrows="1" fold="1" page="1" pageScale="1" pageWidth="827" pageHeight="1169" math="0" shadow="0">
      <root>
        <mxCell id="0" />
        <mxCell id="1" parent="0" />
        <mxCell id="rmq4ZU9Kxy3a-hpei_u6-1" value="输入层(sentence1)" style="rounded=1;whiteSpace=wrap;html=1;" vertex="1" parent="1">
          <mxGeometry x="120" y="750" width="160" height="50" as="geometry" />
        </mxCell>
        <mxCell id="rmq4ZU9Kxy3a-hpei_u6-25" value="" style="edgeStyle=orthogonalEdgeStyle;rounded=0;orthogonalLoop=1;jettySize=auto;html=1;" edge="1" parent="1" source="rmq4ZU9Kxy3a-hpei_u6-6" target="rmq4ZU9Kxy3a-hpei_u6-8">
          <mxGeometry relative="1" as="geometry" />
        </mxCell>
        <mxCell id="rmq4ZU9Kxy3a-hpei_u6-6" value="表示层&lt;br&gt;Bert" style="rounded=1;whiteSpace=wrap;html=1;" vertex="1" parent="1">
          <mxGeometry x="120" y="660" width="160" height="50" as="geometry" />
        </mxCell>
        <mxCell id="rmq4ZU9Kxy3a-hpei_u6-31" value="" style="edgeStyle=orthogonalEdgeStyle;rounded=0;orthogonalLoop=1;jettySize=auto;html=1;" edge="1" parent="1" source="rmq4ZU9Kxy3a-hpei_u6-8" target="rmq4ZU9Kxy3a-hpei_u6-19">
          <mxGeometry relative="1" as="geometry" />
        </mxCell>
        <mxCell id="rmq4ZU9Kxy3a-hpei_u6-8" value="vector1" style="rounded=1;whiteSpace=wrap;html=1;" vertex="1" parent="1">
          <mxGeometry x="140" y="555" width="120" height="60" as="geometry" />
        </mxCell>
        <mxCell id="rmq4ZU9Kxy3a-hpei_u6-30" value="" style="edgeStyle=orthogonalEdgeStyle;rounded=0;orthogonalLoop=1;jettySize=auto;html=1;" edge="1" parent="1" source="rmq4ZU9Kxy3a-hpei_u6-9" target="rmq4ZU9Kxy3a-hpei_u6-20">
          <mxGeometry relative="1" as="geometry" />
        </mxCell>
        <mxCell id="rmq4ZU9Kxy3a-hpei_u6-9" value="vector2" style="rounded=1;whiteSpace=wrap;html=1;" vertex="1" parent="1">
          <mxGeometry x="470" y="555" width="120" height="60" as="geometry" />
        </mxCell>
        <mxCell id="rmq4ZU9Kxy3a-hpei_u6-42" value="" style="edgeStyle=orthogonalEdgeStyle;rounded=0;orthogonalLoop=1;jettySize=auto;html=1;" edge="1" parent="1" source="rmq4ZU9Kxy3a-hpei_u6-12" target="rmq4ZU9Kxy3a-hpei_u6-13">
          <mxGeometry relative="1" as="geometry" />
        </mxCell>
        <mxCell id="rmq4ZU9Kxy3a-hpei_u6-12" value="cosine_layer" style="rounded=0;whiteSpace=wrap;html=1;" vertex="1" parent="1">
          <mxGeometry x="300" y="300" width="120" height="60" as="geometry" />
        </mxCell>
        <mxCell id="rmq4ZU9Kxy3a-hpei_u6-13" value="match score" style="ellipse;whiteSpace=wrap;html=1;" vertex="1" parent="1">
          <mxGeometry x="300" y="170" width="120" height="80" as="geometry" />
        </mxCell>
        <mxCell id="rmq4ZU9Kxy3a-hpei_u6-15" value="输入层(sentence2)" style="rounded=1;whiteSpace=wrap;html=1;" vertex="1" parent="1">
          <mxGeometry x="450" y="750" width="160" height="50" as="geometry" />
        </mxCell>
        <mxCell id="rmq4ZU9Kxy3a-hpei_u6-27" value="" style="edgeStyle=orthogonalEdgeStyle;rounded=0;orthogonalLoop=1;jettySize=auto;html=1;" edge="1" parent="1" source="rmq4ZU9Kxy3a-hpei_u6-16" target="rmq4ZU9Kxy3a-hpei_u6-9">
          <mxGeometry relative="1" as="geometry" />
        </mxCell>
        <mxCell id="rmq4ZU9Kxy3a-hpei_u6-16" value="表示层&lt;br&gt;Bert" style="rounded=1;whiteSpace=wrap;html=1;" vertex="1" parent="1">
          <mxGeometry x="450" y="660" width="160" height="50" as="geometry" />
        </mxCell>
        <mxCell id="rmq4ZU9Kxy3a-hpei_u6-19" value="vector1-vector2" style="rounded=1;whiteSpace=wrap;html=1;" vertex="1" parent="1">
          <mxGeometry x="140" y="450" width="120" height="60" as="geometry" />
        </mxCell>
        <mxCell id="rmq4ZU9Kxy3a-hpei_u6-20" value="vector2-vector1" style="rounded=1;whiteSpace=wrap;html=1;" vertex="1" parent="1">
          <mxGeometry x="470" y="450" width="120" height="60" as="geometry" />
        </mxCell>
        <mxCell id="rmq4ZU9Kxy3a-hpei_u6-21" value="" style="endArrow=classic;html=1;entryX=0.5;entryY=1;entryDx=0;entryDy=0;" edge="1" parent="1" target="rmq4ZU9Kxy3a-hpei_u6-6">
          <mxGeometry width="50" height="50" relative="1" as="geometry">
            <mxPoint x="200" y="750" as="sourcePoint" />
            <mxPoint x="250" y="700" as="targetPoint" />
          </mxGeometry>
        </mxCell>
        <mxCell id="rmq4ZU9Kxy3a-hpei_u6-26" value="" style="endArrow=classic;html=1;entryX=0.5;entryY=1;entryDx=0;entryDy=0;" edge="1" parent="1">
          <mxGeometry width="50" height="50" relative="1" as="geometry">
            <mxPoint x="529.5" y="750" as="sourcePoint" />
            <mxPoint x="529.5" y="710" as="targetPoint" />
          </mxGeometry>
        </mxCell>
        <mxCell id="rmq4ZU9Kxy3a-hpei_u6-32" value="" style="endArrow=classic;html=1;entryX=1;entryY=1;entryDx=0;entryDy=0;" edge="1" parent="1" target="rmq4ZU9Kxy3a-hpei_u6-19">
          <mxGeometry width="50" height="50" relative="1" as="geometry">
            <mxPoint x="470" y="555" as="sourcePoint" />
            <mxPoint x="520" y="505" as="targetPoint" />
          </mxGeometry>
        </mxCell>
        <mxCell id="rmq4ZU9Kxy3a-hpei_u6-33" value="" style="endArrow=classic;html=1;exitX=1;exitY=0;exitDx=0;exitDy=0;entryX=0.067;entryY=1.05;entryDx=0;entryDy=0;entryPerimeter=0;" edge="1" parent="1" source="rmq4ZU9Kxy3a-hpei_u6-8" target="rmq4ZU9Kxy3a-hpei_u6-20">
          <mxGeometry width="50" height="50" relative="1" as="geometry">
            <mxPoint x="490" y="545" as="sourcePoint" />
            <mxPoint x="340" y="510" as="targetPoint" />
            <Array as="points">
              <mxPoint x="260" y="560" />
            </Array>
          </mxGeometry>
        </mxCell>
        <mxCell id="rmq4ZU9Kxy3a-hpei_u6-40" value="" style="endArrow=classic;html=1;entryX=0.5;entryY=1;entryDx=0;entryDy=0;" edge="1" parent="1" target="rmq4ZU9Kxy3a-hpei_u6-12">
          <mxGeometry width="50" height="50" relative="1" as="geometry">
            <mxPoint x="200" y="450" as="sourcePoint" />
            <mxPoint x="250" y="400" as="targetPoint" />
          </mxGeometry>
        </mxCell>
        <mxCell id="rmq4ZU9Kxy3a-hpei_u6-41" value="" style="endArrow=classic;html=1;" edge="1" parent="1">
          <mxGeometry width="50" height="50" relative="1" as="geometry">
            <mxPoint x="530" y="450" as="sourcePoint" />
            <mxPoint x="370" y="360" as="targetPoint" />
          </mxGeometry>
        </mxCell>
      </root>
    </mxGraphModel>
  </diagram>
</mxfile>
